<?xml version="1.0" encoding="UTF-8" standalone="no"?> <svg id="_1_-_10" data-name="1 - 10" xmlns="http://www.w3.org/2000/svg" viewBox="0 0 48 48"><title>Graduate</title><g id="Graduate"><path d="M44.485,31.5A2.489,2.489,0,0,0,44,27.211V23.79l-2,.85v2.571a2.489,2.489,0,0,0-.485,4.29,2.488,2.488,0,0,0-1.015,2V36a1,1,0,0,0,1,1h3a1,1,0,0,0,1-1V33.5A2.488,2.488,0,0,0,44.485,31.5Z"/><path d="M39,25.91v7.4a4.961,4.961,0,0,1-2.4,4.28,24.984,24.984,0,0,1-25.2,0A4.961,4.961,0,0,1,9,33.31v-7.4L21.27,31.1a7.05,7.05,0,0,0,5.46,0Z"/><path d="M46.036,15.237l-20.088-8.5a5.029,5.029,0,0,0-3.9,0l-20.088,8.5a3,3,0,0,0,0,5.526l20.088,8.5a5.024,5.024,0,0,0,3.9,0l20.088-8.5a3,3,0,0,0,0-5.526Z"/></g></svg>